<svg width="120" height="102" viewBox="0 0 120 102" fill="none" xmlns="http://www.w3.org/2000/svg">
<rect width="120" height="102" fill="white"/>
<rect width="60" height="51" transform="scale(2)" fill="black"/>
<path d="M35.9297 11.0898L28.9336 37.1406H23.4492L19.1953 17.5938L14.6602 37.1406H9.14062L2.56641 11.0898H7.34766L11.918 33.4492L16.8398 11.0898H21.6211L26.1914 33.4492L31.1484 11.0898H35.9297ZM56.3203 29.8984C56.3203 30.8359 56.1211 31.75 55.7227 32.6406C55.3477 33.5078 54.8086 34.2812 54.1055 34.9609C53.4023 35.6172 52.5352 36.1445 51.5039 36.543C50.4727 36.9414 49.3008 37.1406 47.9883 37.1406C47.4258 37.1406 46.8398 37.1055 46.2305 37.0352C45.6445 36.9883 45.0469 36.8945 44.4375 36.7539C43.8281 36.6133 43.2422 36.4258 42.6797 36.1914C42.1406 35.9336 41.6719 35.6289 41.2734 35.2773L42.0117 32.2539C42.3398 32.4414 42.75 32.6289 43.2422 32.8164C43.7578 32.9805 44.2852 33.1445 44.8242 33.3086C45.3633 33.4492 45.9023 33.5664 46.4414 33.6602C46.9805 33.7539 47.4844 33.8008 47.9531 33.8008C49.3828 33.8008 50.4727 33.4727 51.2227 32.8164C51.9961 32.1367 52.3828 31.1406 52.3828 29.8281C52.3828 29.0312 52.1133 28.3516 51.5742 27.7891C51.0352 27.2266 50.3555 26.7227 49.5352 26.2773C48.7383 25.8086 47.8711 25.3516 46.9336 24.9062C45.9961 24.4375 45.1172 23.8984 44.2969 23.2891C43.4766 22.6562 42.7969 21.918 42.2578 21.0742C41.7188 20.2305 41.4492 19.1758 41.4492 17.9102C41.4492 16.7617 41.6602 15.7422 42.082 14.8516C42.5039 13.9609 43.0664 13.2109 43.7695 12.6016C44.4961 11.9688 45.3281 11.4883 46.2656 11.1602C47.2266 10.832 48.2344 10.668 49.2891 10.668C50.3672 10.668 51.457 10.7734 52.5586 10.9844C53.6602 11.1719 54.5508 11.4883 55.2305 11.9336C55.0898 12.2383 54.9258 12.5781 54.7383 12.9531C54.5508 13.3047 54.375 13.6445 54.2109 13.9727C54.0469 14.2773 53.9062 14.5352 53.7891 14.7461C53.6719 14.957 53.6016 15.0742 53.5781 15.0977C53.4375 15.0273 53.2734 14.9336 53.0859 14.8164C52.9219 14.6992 52.6758 14.582 52.3477 14.4648C52.0195 14.3477 51.5859 14.2656 51.0469 14.2188C50.5078 14.1719 49.8164 14.1836 48.9727 14.2539C48.5039 14.3008 48.0586 14.4414 47.6367 14.6758C47.2148 14.8867 46.8398 15.1562 46.5117 15.4844C46.1836 15.8125 45.9258 16.1875 45.7383 16.6094C45.5508 17.0078 45.457 17.3945 45.457 17.7695C45.457 18.707 45.7266 19.4688 46.2656 20.0547C46.8047 20.6172 47.4727 21.1211 48.2695 21.5664C49.0664 21.9883 49.9336 22.4102 50.8711 22.832C51.8086 23.2305 52.6758 23.7227 53.4727 24.3086C54.293 24.8945 54.9727 25.6328 55.5117 26.5234C56.0508 27.3906 56.3203 28.5156 56.3203 29.8984Z" transform="translate(0 4) scale(2)" fill="white"/>
</svg>
